<svg xmlns="http://www.w3.org/2000/svg" data-name="Layer 3" viewBox="0 0 64 64" id="design-tool"><path d="M62,15H52v2h9V61H9A6,6,0,0,1,9,49a1,1,0,0,0,1-1V17H20V15H10V2A1,1,0,0,0,9,1,8.009,8.009,0,0,0,1,9V55a8.009,8.009,0,0,0,8,8H62a1,1,0,0,0,1-1V16A1,1,0,0,0,62,15ZM3,9A6.01,6.01,0,0,1,8,3.083V47.062a8,8,0,0,0-5,2.652Z"></path><path d="M60 39a1 1 0 0 0-1-1H13a1 1 0 0 0-1 1v8a1 1 0 0 0 1 1H59a1 1 0 0 0 1-1zm-2 7H54V42H52v4H50V44H48v2H46V42H44v4H42V44H40v2H38V42H36v4H34V44H32v2H30V42H28v4H26V44H24v2H22V42H20v4H18V44H16v2H14V40H58zM57 50H23a1 1 0 0 0-.371.071l-10 4a1 1 0 0 0 0 1.858l10 4A1 1 0 0 0 23 60H57a3 3 0 0 0 3-3V53A3 3 0 0 0 57 50zM25.414 57l1-1H49v2H26.414zM49 54H26.414l-1-1 1-1H49zm2-2h1v6H51zM20 53.277v3.446L15.692 55zm2 4.246V52.477L23.192 52h.394l-.293.293a1 1 0 0 0 0 1.414L24.586 55l-1.293 1.293a1 1 0 0 0 0 1.414l.293.293h-.394zM58 57a1 1 0 0 1-1 1H54V52h3a1 1 0 0 1 1 1zM35.092 7.581l-6 13A1 1 0 0 0 30 22a2 2 0 0 1 2 2v3H30v2h2.117l.891 7.124 1.984-.248L34.133 29h3.734l-.859 6.876 1.984.248L39.883 29H42V27H40V24a2 2 0 0 1 2-2 1 1 0 0 0 .908-1.419l-6-13a1 1 0 0 0-1.816 0zM37 19a1 1 0 1 1-1-1A1 1 0 0 1 37 19zm1 5v3H34V24a4.005 4.005 0 0 0-2.561-3.732L35 12.553v3.631a3 3 0 1 0 2 0V12.553l3.561 7.715A4.005 4.005 0 0 0 38 24z"></path><path d="M38,1H34a1,1,0,0,0-1,1V3H20.816a3,3,0,1,0,0,2h8.25a12.979,12.979,0,0,0-5.712,8H22a1,1,0,0,0-1,1v4a1,1,0,0,0,1,1h4a1,1,0,0,0,1-1V14a1,1,0,0,0-1-1h-.578A10.976,10.976,0,0,1,33,5.422V6a1,1,0,0,0,1,1h4a1,1,0,0,0,1-1V5.422A10.976,10.976,0,0,1,46.578,13H46a1,1,0,0,0-1,1v4a1,1,0,0,0,1,1h4a1,1,0,0,0,1-1V14a1,1,0,0,0-1-1H48.646a12.979,12.979,0,0,0-5.712-8h8.25a3,3,0,1,0,0-2H39V2A1,1,0,0,0,38,1ZM25,17H23V15h2Zm24,0H47V15h2ZM18,5a1,1,0,1,1,1-1A1,1,0,0,1,18,5ZM37,5H35V3h2ZM54,3a1,1,0,1,1-1,1A1,1,0,0,1,54,3Z"></path></svg>