<svg xmlns="http://www.w3.org/2000/svg" data-name="Layer 1" viewBox="0 0 64 64" id="development"><rect width="4" height="2" x="35" y="35"></rect><rect width="4" height="2" x="41" y="35"></rect><rect width="4" height="2" x="47" y="35"></rect><path d="M2.21,41.39a1,1,0,0,0-.11,1A1,1,0,0,0,3,43h8.53L13,47.37l3.09,8a1,1,0,0,0,.17.27,2.58,2.58,0,0,0-.22,1v2.72A2.65,2.65,0,0,0,18.64,62H29.36A2.65,2.65,0,0,0,32,59.36V56.64a2.67,2.67,0,0,0-.22-1,.87.87,0,0,0,.18-.31l1.68-5A7.05,7.05,0,0,0,34,48V43H61a1,1,0,0,0,.9-.56,1,1,0,0,0-.11-1L55,32.66V3a1,1,0,0,0-1-1H10A1,1,0,0,0,9,3V32.66ZM5,41l5.45-7H16v3.34L16,37.2l-.95.3.95-.32A3.16,3.16,0,0,0,13,35a2.57,2.57,0,0,0-.9.15,2.93,2.93,0,0,0-1.68,1.49,3.17,3.17,0,0,0-.16,2.42h0v0h0L10.88,41ZM20,22V19.1A5,5,0,0,1,22,28V26.15a3,3,0,1,0-6,0V28a5,5,0,0,1,2-8.9V22ZM30,59.36a.64.64,0,0,1-.64.64H18.64a.64.64,0,0,1-.64-.64V56.64a.64.64,0,0,1,.64-.64H29.36a.64.64,0,0,1,.64.64ZM32,48a5.17,5.17,0,0,1-.26,1.61L30.28,54H17.68l-2.84-7.3-2.6-8-.07-.23-1,.29.95-.32a1.17,1.17,0,0,1,.05-.92.88.88,0,0,1,.56-.49A.57.57,0,0,1,13,37a1.15,1.15,0,0,1,1,.82l1.95,6V44h2V26.15A1.1,1.1,0,0,1,19,25a1.1,1.1,0,0,1,1,1.15V41h2V35a1,1,0,0,1,2,0v8h2V37a1.09,1.09,0,0,1,.13-.5A1,1,0,0,1,28,37v8h2V39a1,1,0,0,1,1.16-1A1.14,1.14,0,0,1,32,39.16Zm2-7V39.16a3,3,0,0,0-4.1-2.93,2.77,2.77,0,0,0-.31-.73,2.91,2.91,0,0,0-3.7-1.26c0-.08-.05-.16-.07-.24H53.51L59,41ZM11,4H53V32H22V30.3a7,7,0,1,0-6,0V32H11Z"></path><rect width="4" height="2" x="38" y="38"></rect><rect width="4" height="2" x="44" y="38"></rect><rect width="4" height="2" x="50" y="38"></rect><path d="M36,26.67V28a3,3,0,0,0,6,0V26.67A8.4,8.4,0,0,0,47,19a8,8,0,0,0-16,0A8.39,8.39,0,0,0,36,26.67ZM40,28a1,1,0,0,1-2,0V27h2Zm-2-8a1,1,0,1,1,1,1A1,1,0,0,1,38,20Zm1-7a6,6,0,0,1,6,6,6.43,6.43,0,0,1-4.15,6H40V22.82a3,3,0,1,0-2,0V25h-.85A6.43,6.43,0,0,1,33,19,6,6,0,0,1,39,13Z"></path><rect width="4" height="2" x="48" y="18"></rect><rect width="4" height="2" x="26" y="18"></rect><rect width="2" height="4" x="45.34" y="25.11" transform="matrix(.55 -.83 .83 .55 -1.92 50.63)"></rect><rect width="2" height="4" x="29.66" y="10.11" transform="rotate(-56.31 30.668 12.11)"></rect><rect width="4" height="2" x="29.34" y="26.11" transform="rotate(-33.69 31.347 27.104)"></rect><rect width="4" height="2" x="45.97" y="11.11" transform="rotate(-33.69 47.966 12.107)"></rect><path d="M54 56V52a6 6 0 0 0-12 0v4a6 6 0 0 0 12 0zm-2.14-5H49V48.14A4 4 0 0 1 51.86 51zM47 48.14V51H44.14A4 4 0 0 1 47 48.14zM44 56V53h8v3a4 4 0 0 1-8 0zM41 52V50a3.54 3.54 0 0 0 0 7V55c-.53 0-1-.7-1-1.5S40.47 52 41 52z"></path><path d="M41 47a6.52 6.52 0 0 0 0 13V58a4.53 4.53 0 0 1 0-9zM59 26.5A3.29 3.29 0 0 0 56 23v2c.53 0 1 .7 1 1.5S56.53 28 56 28v2A3.29 3.29 0 0 0 59 26.5z"></path><path d="M56 20v2a4.27 4.27 0 0 1 4 4.5A4.27 4.27 0 0 1 56 31v2a6.27 6.27 0 0 0 6-6.5A6.27 6.27 0 0 0 56 20zM8 25V23a3.29 3.29 0 0 0-3 3.5A3.29 3.29 0 0 0 8 30V28c-.53 0-1-.7-1-1.5S7.47 25 8 25z"></path><path d="M8 33V31a4.27 4.27 0 0 1-4-4.5A4.27 4.27 0 0 1 8 22V20a6.27 6.27 0 0 0-6 6.5A6.27 6.27 0 0 0 8 33zM55 55v2a3.54 3.54 0 0 0 0-7v2c.53 0 1 .7 1 1.5S55.53 55 55 55z"></path><path d="M55,47v2a4.53,4.53,0,0,1,0,9v2a6.52,6.52,0,0,0,0-13Z"></path><rect width="2" height="4" x="38" y="6"></rect></svg>