<svg xmlns="http://www.w3.org/2000/svg" viewBox="0 0 48 48" id="Generate"><path d="M24 0A24 24 0 0 0 0 24a24 24 0 0 0 24 24 24 24 0 0 0 24-24A24 24 0 0 0 24 0zm6.383 8.83a.5.5 0 0 1 .478.371l.532 1.99a.5.5 0 1 1-.967.258l-.223-.832c-3.655 6.066-11.7 13.206-20.107 14.873a.5.5 0 0 1-.196-.982c7.972-1.581 15.918-8.587 19.426-14.375l-.812.217a.5.5 0 1 1-.258-.967l1.992-.535a.5.5 0 0 1 .135-.018zm-1.885 7.168h3a.5.5 0 0 1 .5.5v4.248a1.306 1.306 0 0 0-.46.399l.169-.202-.709.707v-4.652h-2v8.703a1.476 1.476 0 0 0-.537-.105h-.463v-9.098a.5.5 0 0 1 .5-.5zm5.48 5v.006h1.64c.172 0 .295.077.372.158.078.08.131.174.145.31l-.004-.033.066.395.323-.23-.104.1c.199-.256.633-.264.832.02l-.055-.064 1.153 1.16a.524.524 0 0 1 .074.639.5.5 0 0 1-.02.031l-.224.319.383.06a.5.5 0 0 1 .02 0 .525.525 0 0 1 .42.51l-.001 1.639a.48.48 0 0 1-.152.36.495.495 0 0 1-.367.155l.082-.01-.393.067.223.312a.531.531 0 0 1 .01.616.5.5 0 0 1-.055.068l-1.153 1.152.055-.068c-.197.28-.632.272-.828.027l.101.096-.328-.232-.06.375a.494.494 0 0 1-.14.293.513.513 0 0 1-.376.162H33.98a.502.502 0 0 1-.374-.16.495.495 0 0 1-.144-.311l.004.035-.065-.387-.314.223.105-.102c-.199.255-.634.264-.834-.021l.057.068-1.162-1.154a.524.524 0 0 1-.076-.639.5.5 0 0 1 .021-.033l.23-.322-.392-.067a.5.5 0 0 1-.017 0 .525.525 0 0 1-.42-.51v-1.638c0-.17.07-.284.152-.367a.494.494 0 0 1 .367-.152l-.082.01.389-.065-.219-.303a.534.534 0 0 1-.01-.617.5.5 0 0 1 .057-.067l1.162-1.162-.057.067c.197-.28.635-.27.83-.026l-.097-.093.31.224.065-.388-.002.023a.518.518 0 0 1 .516-.459zm-11.48.996 3 .01a.5.5 0 0 1 .5.5v3.098h-.062c-.426 0-.721.129-.938.324v-2.924h-2v3.832h-.006l-.994.994v-5.33a.5.5 0 0 1 .5-.5v-.004zm11.887.004-.131.783a.5.5 0 0 1-.787.324l-.635-.459-.586.586.46.635a.5.5 0 0 1-.323.785l-.785.133v.826l.785.131a.5.5 0 0 1 .324.785l-.46.645.585.58.639-.453a.5.5 0 0 1 .783.324l.13.775h.825l.123-.78a.5.5 0 0 1 .783-.329l.656.465.58-.58-.462-.647a.5.5 0 0 1 .324-.785l.785-.13v-.825l-.771-.123a.5.5 0 0 1-.33-.781l.457-.65-.583-.588-.644.46a.5.5 0 0 1-.783-.324l-.133-.783h-.826zm.416 1.7a1.51 1.51 0 0 1 1.498 1.503c0 .82-.678 1.496-1.498 1.496s-1.502-.671-1.502-1.496a1.51 1.51 0 0 1 1.502-1.504zm0 1a.498.498 0 0 0-.502.503.49.49 0 0 0 .502.496c.286 0 .498-.21.498-.496a.492.492 0 0 0-.498-.504zm-18.303 1.3h3a.5.5 0 0 1 .5.5v12a.5.5 0 0 1-.5.5h-3a.5.5 0 0 1-.5-.5v-12a.5.5 0 0 1 .5-.5zm9.438.6v.004a.5.5 0 0 1 .035 0h2.49c.183 0 .309.087.385.168a.501.501 0 0 1 .14.296l.172 1.014.848-.605-.03.023a.483.483 0 0 1 .337-.123.498.498 0 0 1 .388.158l1.772 1.787a.5.5 0 0 1 .004 0c.136.14.15.28.148.383a.486.486 0 0 1-.107.309l-.588.834 1.004.162c.136.018.223.07.302.146a.514.514 0 0 1 .162.38v2.525c0 .17-.073.29-.158.375a.5.5 0 0 1-.373.156l.084-.01-1.033.174.602.844a.487.487 0 0 1 .105.306.495.495 0 0 1-.148.383.5.5 0 0 1-.006.01l-1.77 1.77a.506.506 0 0 1-.389.16.493.493 0 0 1-.333-.123l-.83-.586-.163 1.011c-.031.25-.18.471-.525.471h-2.525a.518.518 0 0 1-.385-.17.501.501 0 0 1-.14-.297l-.173-1.004-.802.57a.49.49 0 0 1-.338.126.494.494 0 0 1-.387-.159l.006.01-1.791-1.775a.5.5 0 0 1-.006-.01.495.495 0 0 1-.149-.383.49.49 0 0 1 .108-.312l.6-.838-1.016-.17h-.004a.505.505 0 0 1-.3-.147.513.513 0 0 1-.161-.379v-2.525c0-.17.071-.29.156-.375a.505.505 0 0 1 .375-.156l-.084.01 1.028-.174-.594-.824a.485.485 0 0 1-.108-.311.495.495 0 0 1 .149-.383.5.5 0 0 1 .004-.01l1.787-1.785a.502.502 0 0 1 .387-.16c.11.002.215.024.336.123l.804.58.17-1.006c.032-.25.183-.468.528-.468zm-8.938.4v11h2v-11h-2zm9.336.6-.242 1.433a.5.5 0 0 1-.785.323l-1.166-.842-1.227 1.228.842 1.166a.5.5 0 0 1-.324.785l-1.434.243v1.728l1.434.242a.5.5 0 0 1 .324.783l-.842 1.182 1.227 1.217 1.168-.83a.5.5 0 0 1 .783.322L26.334 38h1.727l.226-1.432a.5.5 0 0 1 .783-.33l1.198.848 1.216-1.217-.845-1.181a.5.5 0 0 1 .324-.784l1.435-.242v-1.726l-1.416-.229a.5.5 0 0 1-.33-.781l.834-1.184-1.218-1.228-1.18.841a.5.5 0 0 1-.783-.324l-.242-1.433h-1.729zm-15.836.4h3a.5.5 0 0 1 .5.5v10a.5.5 0 0 1-.5.5h-3a.5.5 0 0 1-.5-.5v-10a.5.5 0 0 1 .5-.5zm.5 1v9h2v-9h-2zm16.207 1.072c1.503 0 2.719 1.236 2.719 2.735a2.722 2.722 0 0 1-2.719 2.718c-1.499 0-2.734-1.215-2.734-2.718a2.744 2.744 0 0 1 2.734-2.735zm0 1c-.96 0-1.734.774-1.734 1.735 0 .96.77 1.718 1.734 1.718a1.7 1.7 0 0 0 1.719-1.718c0-.965-.759-1.735-1.719-1.735z" fill="#008b8b" class="color000000 svgShape"></path></svg>