<svg xmlns="http://www.w3.org/2000/svg" viewBox="0 0 48 48" id="Tag"><path fill-rule="evenodd" d="M24 0A24 24 0 0 0 0 24a24 24 0 0 0 24 24 24 24 0 0 0 24-24A24 24 0 0 0 24 0zM13.781 11.375l.469.125 11.594 3.125 7.718 2.063.344.062.032.344.562 4.062c.94.284 1.76.94 2.188 1.875.14.309.203.645.25.969H38.5c.928 0 1.813.375 2.469 1.031A3.493 3.493 0 0 1 42 27.5a.5.5 0 1 1-1 0c0-.663-.25-1.312-.719-1.781A2.518 2.518 0 0 0 38.5 25h-1.563c-.12.834-.506 1.62-1.187 2.188a3.501 3.501 0 0 1-2.656.78l-2.157 3.782a.5.5 0 0 1-.437.25h-20a.5.5 0 0 1-.5-.5v-14a.5.5 0 0 1 .5-.5h1.781l1.375-5.125.125-.5zm.719 1.219L13.344 17H30.5a.5.5 0 0 1 .438.25l2.156 3.781c.129-.015.247-.03.375-.031L33 17.562l-7.406-2L14.5 12.595zM11 18v13h19.188l1.906-3.313a3.368 3.368 0 0 1-.594-.312 3.548 3.548 0 0 1-.938-.969A1.981 1.981 0 0 1 30 26.5c-1.097 0-2-.903-2-2s.903-2 2-2 2 .903 2 2a1.99 1.99 0 0 1-.594 1.406c.168.247.4.477.657.657.168.117.346.178.53.25l1.313-2.313-3.718-6.5H11zm11.514 2.973a.5.5 0 0 1 .33.87l-6.969 7a.508.508 0 1 1-.719-.718l6.969-7a.5.5 0 0 1 .219-.125.5.5 0 0 1 .17-.027zM16.5 21a1.5 1.5 0 0 1 1.063.438 1.51 1.51 0 0 1 0 2.125 1.51 1.51 0 0 1-2.125 0 1.51 1.51 0 0 1 0-2.125A1.5 1.5 0 0 1 16.5 21zm0 1c-.127 0-.275.025-.375.125-.2.2-.2.518 0 .719.2.2.518.2.719 0 .2-.2.2-.518 0-.719A.452.452 0 0 0 16.5 22zm18.156.281.25 1.907.032.062a.5.5 0 0 1 0 .5L33.656 27a2.526 2.526 0 0 0 1.438-.594c.868-.723 1.158-1.91.687-2.937a2.596 2.596 0 0 0-1.125-1.188zM30 23.5c-.556 0-1 .444-1 1s.444 1 1 1c.046 0 .08-.021.125-.031a3.52 3.52 0 0 1 0-1.938c-.045-.006-.079-.031-.125-.031zM21.5 26a1.5 1.5 0 0 1 1.063.438 1.51 1.51 0 0 1 0 2.125 1.51 1.51 0 0 1-2.125 0 1.51 1.51 0 0 1 0-2.125A1.5 1.5 0 0 1 21.5 26zm0 1a.484.484 0 0 0-.344.156c-.2.2-.2.518 0 .719.2.2.518.2.719 0 .2-.2.2-.518 0-.719A.555.555 0 0 0 21.5 27z" fill="#008b8b" class="color000000 svgShape"></path></svg>